<svg width="64" height="64" viewBox="0 0 64 64" fill="none" xmlns="http://www.w3.org/2000/svg">
<rect width="64" height="64" fill="#8B22DB"/>
<path d="M6.91761 23.5455H10.1136L15.6705 37.1136H15.875L21.4318 23.5455H24.6278V41H22.1222V28.3693H21.9602L16.8125 40.9744H14.733L9.58523 28.3608H9.4233V41H6.91761V23.5455ZM31.2491 23.5455L35.4252 30.3722H35.5616L39.7377 23.5455H42.7888L37.3513 32.2727L42.8229 41H39.7547L35.5616 34.267H35.4252L31.232 41H28.1638L33.7292 32.2727L28.1979 23.5455H31.2491ZM51.5088 43.1818V21.3636H52.9065V43.1818H51.5088ZM55.8809 28.1307C55.79 27.3239 55.415 26.6989 54.7559 26.2557C54.0968 25.8068 53.2673 25.5824 52.2673 25.5824C51.5514 25.5824 50.9321 25.696 50.4093 25.9233C49.8866 26.1449 49.4804 26.4517 49.1906 26.8438C48.9065 27.2301 48.7645 27.6705 48.7645 28.1648C48.7645 28.5795 48.861 28.9375 49.0542 29.2386C49.2531 29.5398 49.5116 29.7926 49.8298 29.9972C50.1537 30.196 50.5003 30.3636 50.8696 30.5C51.2389 30.6307 51.594 30.7386 51.9349 30.8239L53.6395 31.267C54.1963 31.4034 54.7673 31.5881 55.3525 31.821C55.9378 32.054 56.4804 32.3608 56.9804 32.7415C57.4804 33.1222 57.8838 33.5938 58.1906 34.1562C58.5031 34.7188 58.6593 35.392 58.6593 36.1761C58.6593 37.1648 58.4037 38.0426 57.8923 38.8097C57.3866 39.5767 56.6508 40.1818 55.6849 40.625C54.7247 41.0682 53.5628 41.2898 52.1991 41.2898C50.8923 41.2898 49.7616 41.0824 48.8071 40.6676C47.8525 40.2528 47.1054 39.6648 46.5656 38.9034C46.0258 38.1364 45.7275 37.2273 45.6707 36.1761H48.3128C48.3639 36.8068 48.5684 37.3324 48.9264 37.7528C49.29 38.1676 49.7531 38.4773 50.3156 38.6818C50.8838 38.8807 51.5059 38.9801 52.1821 38.9801C52.9264 38.9801 53.5883 38.8636 54.1679 38.6307C54.7531 38.392 55.2133 38.0625 55.5485 37.642C55.8838 37.2159 56.0514 36.7187 56.0514 36.1506C56.0514 35.6335 55.9037 35.2102 55.6082 34.8807C55.3184 34.5511 54.9235 34.2784 54.4235 34.0625C53.9292 33.8466 53.3696 33.6562 52.7446 33.4915L50.6821 32.929C49.2843 32.5483 48.1764 31.9886 47.3582 31.25C46.5457 30.5114 46.1395 29.5341 46.1395 28.3182C46.1395 27.3125 46.4122 26.4347 46.9576 25.6847C47.5031 24.9347 48.2417 24.3523 49.1735 23.9375C50.1054 23.517 51.1565 23.3068 52.327 23.3068C53.5088 23.3068 54.5514 23.5142 55.4548 23.929C56.3639 24.3438 57.0798 24.9148 57.6025 25.642C58.1253 26.3636 58.398 27.1932 58.4207 28.1307H55.8809Z" fill="white"/>
</svg>
