<svg width="735" height="135" viewBox="0 0 735 135" fill="none" xmlns="http://www.w3.org/2000/svg">
<g clip-path="url(#clip0_421_953)">
<path d="M120.811 0C125.773 7.91701 128.011 16.0716 128.011 26.3724C128.011 59.2269 98.9759 101.907 75.4109 131.877H21.5866L0 7.19336L47.129 2.87121L58.542 91.5915C69.2063 74.8097 82.3659 48.4375 82.3659 30.4571C82.3659 20.6153 80.6207 13.9117 77.8926 8.39206L120.811 0Z" fill="#838996"/>
<path d="M181.894 54.9112C190.567 54.9112 212.4 51.0788 212.4 39.0918C212.4 33.3359 208.187 30.4648 203.222 30.4648C194.535 30.4648 183.136 40.5268 181.894 54.9112ZM180.9 78.6513C180.9 93.2879 189.326 99.0303 200.495 99.0303C212.659 99.0303 224.305 96.1589 239.442 88.7281L233.741 126.126C223.075 131.16 206.454 134.518 190.321 134.518C149.396 134.518 134.75 110.544 134.75 80.5734C134.75 41.7282 158.574 0.481445 207.694 0.481445C234.737 0.481445 249.859 15.1168 249.859 35.4957C249.862 68.3491 206.209 78.4137 180.9 78.6513Z" fill="#838996"/>
<path d="M385.87 28.7821C385.87 33.5768 385.118 40.5313 384.367 45.0764L370.227 131.399H324.336L337.236 52.2686C337.48 50.1223 338.232 45.8014 338.232 43.404C338.232 37.6478 334.509 36.2118 330.034 36.2118C324.089 36.2118 318.13 38.8465 314.161 40.7703L299.53 131.401H253.38L274.464 2.15985H314.406L314.911 12.4755C324.335 6.48204 336.743 3.95504e-07 354.347 3.95504e-07C377.673 -0.00246385 385.87 11.5106 385.87 28.7821Z" fill="#838996"/>
<path d="M522.109 14.6295C535.254 5.52727 547.664 0.481445 564.774 0.481445C588.337 0.481445 596.534 11.9946 596.534 29.2661C596.534 34.061 595.783 41.0156 595.035 45.5606L580.909 131.883H535.006L548.153 51.0801C548.394 48.92 548.905 46.2853 548.905 44.614C548.905 38.1331 545.18 36.6957 540.704 36.6957C535.006 36.6957 529.307 39.0931 525.076 41.2542L510.447 131.885H464.557L477.701 51.0812C477.942 48.9214 478.438 46.2867 478.438 44.6154C478.438 38.1344 474.71 36.6971 470.252 36.6971C464.295 36.6971 458.348 39.3318 454.379 41.2556L439.736 131.886H393.602L414.684 2.64498H454.138L455.378 13.4345C464.557 6.96842 476.953 0.486364 493.574 0.486364C507.966 0.481442 517.386 6.47614 522.109 14.6295Z" fill="#838996"/>
<path d="M687.852 52.2747C687.852 41.724 685.12 34.5308 676.941 34.5308C658.832 34.5308 655.111 65.459 655.111 81.2808C655.111 93.2837 658.587 100.712 666.766 100.712C683.883 100.712 687.852 68.0951 687.852 52.2747ZM608.473 79.3709C608.473 38.614 630.796 0.477539 682.154 0.477539C720.853 0.477539 735 22.5425 735 52.9984C735 93.2824 712.918 135 660.32 135C621.373 135 608.473 110.301 608.473 79.3709Z" fill="#838996"/>
</g>
<defs>
<clipPath id="clip0_421_953">
<rect width="735" height="135" fill="white"/>
</clipPath>
</defs>
</svg>
